<svg width="52" height="52" viewBox="0 0 52 52" fill="none" xmlns="http://www.w3.org/2000/svg">
<path d="M20.3431 5.65686C23.4673 2.53266 28.5327 2.53266 31.6569 5.65685L46.3431 20.3431C49.4673 23.4673 49.4673 28.5327 46.3431 31.6569L31.6569 46.3431C28.5327 49.4673 23.4673 49.4673 20.3431 46.3431L5.65686 31.6569C2.53266 28.5327 2.53266 23.4673 5.65685 20.3431L20.3431 5.65686Z" fill="url(#paint0_radial_1000_1605)"/>
<g clip-path="url(#clip0_1000_1605)">
<path d="M25.4405 17.1477C25.7851 16.9508 26.2104 16.9508 26.5585 17.1477L32.5983 20.5965L32.7495 20.6562V20.6879L34.4335 21.6512C34.8765 21.9043 35.0944 22.4246 34.9644 22.9168C34.8343 23.409 34.3878 23.7535 33.878 23.7535H18.1245C17.6147 23.7535 17.1683 23.409 17.0382 22.9168C16.9081 22.4246 17.1261 21.9043 17.569 21.6512L19.2495 20.6879V20.6562L19.4042 20.6L25.4405 17.1477ZM19.2495 24.875H21.4995V31.625H22.9058V24.875H25.1558V31.625H26.8433V24.875H29.0933V31.625H30.4995V24.875H32.7495V31.7762C32.7706 31.7867 32.7917 31.8008 32.8128 31.8148L34.5003 32.9398C34.9116 33.2141 35.0979 33.7273 34.9538 34.202C34.8097 34.6766 34.3702 35 33.8745 35H18.1245C17.6288 35 17.1929 34.6766 17.0487 34.202C16.9046 33.7273 17.0874 33.2141 17.5022 32.9398L19.1897 31.8148C19.2108 31.8008 19.2319 31.7902 19.253 31.7762V24.875H19.2495Z" fill="white"/>
</g>
<defs>
<radialGradient id="paint0_radial_1000_1605" cx="0" cy="0" r="1" gradientUnits="userSpaceOnUse" gradientTransform="translate(16.5455 -6.96429) rotate(59.1918) scale(77.3011 169.686)">
<stop offset="0.125" stop-color="#FF9B00"/>
<stop offset="1" stop-color="#ED1C24"/>
</radialGradient>
<clipPath id="clip0_1000_1605">
<rect width="18" height="18" fill="white" transform="translate(17 17)"/>
</clipPath>
</defs>
</svg>
