<svg width="52" height="52" viewBox="0 0 52 52" fill="none" xmlns="http://www.w3.org/2000/svg">
<path d="M20.3431 5.65686C23.4673 2.53266 28.5327 2.53266 31.6569 5.65685L46.3431 20.3431C49.4673 23.4673 49.4673 28.5327 46.3431 31.6569L31.6569 46.3431C28.5327 49.4673 23.4673 49.4673 20.3431 46.3431L5.65686 31.6569C2.53266 28.5327 2.53266 23.4673 5.65685 20.3431L20.3431 5.65686Z" fill="url(#paint0_radial_1000_1595)"/>
<g clip-path="url(#clip0_1000_1595)">
<path d="M21.375 18.125V19.25H19.6875C18.7559 19.25 18 20.0059 18 20.9375V22.625H33.75V20.9375C33.75 20.0059 32.9941 19.25 32.0625 19.25H30.375V18.125C30.375 17.5027 29.8723 17 29.25 17C28.6277 17 28.125 17.5027 28.125 18.125V19.25H23.625V18.125C23.625 17.5027 23.1223 17 22.5 17C21.8777 17 21.375 17.5027 21.375 18.125ZM33.75 23.75H18V33.3125C18 34.2441 18.7559 35 19.6875 35H32.0625C32.9941 35 33.75 34.2441 33.75 33.3125V23.75Z" fill="white"/>
</g>
<defs>
<radialGradient id="paint0_radial_1000_1595" cx="0" cy="0" r="1" gradientUnits="userSpaceOnUse" gradientTransform="translate(16.5455 -6.96429) rotate(59.1918) scale(77.3011 169.686)">
<stop offset="0.125" stop-color="#FF9B00"/>
<stop offset="1" stop-color="#ED1C24"/>
</radialGradient>
<clipPath id="clip0_1000_1595">
<rect width="15.75" height="18" fill="white" transform="translate(18 17)"/>
</clipPath>
</defs>
</svg>
