<svg width="1110" height="511" viewBox="0 0 1110 511" fill="none" xmlns="http://www.w3.org/2000/svg">
<path d="M283.559 378.338L257.289 332.837L147.061 396.477L119.681 349.054L121.375 172.908L195.074 130.358L277.214 272.628L314.384 251.168L335.474 287.697L298.304 309.157L324.574 354.658L283.559 378.338ZM165.064 337.378L236.199 296.308L169.229 180.313L163.461 183.643L162.104 332.252L165.064 337.378Z" fill="url(#paint0_radial_754_6391)"/>
<path d="M858.559 397.238L884.829 351.737L774.601 288.097L801.981 240.674L955.375 154.068L1029.07 196.618L946.934 338.888L984.104 360.348L963.014 396.877L925.844 375.417L899.574 420.918L858.559 397.238ZM834.784 274.138L905.919 315.208L972.889 199.213L967.121 195.883L837.744 269.012L834.784 274.138Z" fill="url(#paint1_radial_754_6391)"/>
<path d="M560.071 410.117C529.485 410.117 504.941 401.73 486.441 384.957C467.941 367.937 458.691 342.284 458.691 307.997V242.877C458.691 209.577 467.941 184.294 486.441 167.027C504.941 149.514 529.485 140.757 560.071 140.757C590.905 140.757 615.448 149.514 633.701 167.027C652.201 184.294 661.451 209.577 661.451 242.877V307.997C661.451 342.284 652.201 367.937 633.701 384.957C615.448 401.73 590.905 410.117 560.071 410.117ZM560.071 367.937C578.571 367.937 592.138 362.88 600.771 352.767C609.651 342.654 614.091 328.224 614.091 309.477V240.657C614.091 221.664 609.158 207.357 599.291 197.737C589.671 187.87 576.598 182.937 560.071 182.937C543.051 182.937 529.731 187.994 520.111 198.107C510.738 208.22 506.051 222.404 506.051 240.657V309.477C506.051 328.964 510.491 343.64 519.371 353.507C528.498 363.127 542.065 367.937 560.071 367.937Z" fill="url(#paint2_radial_754_6391)"/>
<path d="M554.513 75.0254C575.23 75.0254 592.025 58.2304 592.025 37.5127C592.025 16.795 575.23 0 554.513 0C533.795 0 517 16.795 517 37.5127C517 58.2304 533.795 75.0254 554.513 75.0254Z" fill="#FFC700"/>
<path d="M365.172 152.106C366.734 150.544 369.266 150.544 370.828 152.106L381.172 162.449C382.734 164.011 382.734 166.544 381.172 168.106L370.828 178.449C369.266 180.011 366.734 180.011 365.172 178.449L354.828 168.106C353.266 166.544 353.266 164.011 354.828 162.449L365.172 152.106Z" fill="#0000FF"/>
<path d="M1090.17 381.828C1091.73 380.266 1094.27 380.266 1095.83 381.828L1106.17 392.172C1107.73 393.734 1107.73 396.266 1106.17 397.828L1095.83 408.172C1094.27 409.734 1091.73 409.734 1090.17 408.172L1079.83 397.828C1078.27 396.266 1078.27 393.734 1079.83 392.172L1090.17 381.828Z" fill="#0000FF"/>
<path d="M68.1716 349.828C69.7337 348.266 72.2663 348.266 73.8284 349.828L84.1716 360.172C85.7337 361.734 85.7337 364.266 84.1716 365.828L73.8284 376.172C72.2663 377.734 69.7337 377.734 68.1716 376.172L57.8284 365.828C56.2663 364.266 56.2663 361.734 57.8284 360.172L68.1716 349.828Z" fill="#FFC947"/>
<path d="M780.172 391.828C781.734 390.266 784.266 390.266 785.828 391.828L796.172 402.172C797.734 403.734 797.734 406.266 796.172 407.828L785.828 418.172C784.266 419.734 781.734 419.734 780.172 418.172L769.828 407.828C768.266 406.266 768.266 403.734 769.828 402.172L780.172 391.828Z" fill="#ED1C24"/>
<path d="M780.172 135.828C781.734 134.266 784.266 134.266 785.828 135.828L796.172 146.172C797.734 147.734 797.734 150.266 796.172 151.828L785.828 162.172C784.266 163.734 781.734 163.734 780.172 162.172L769.828 151.828C768.266 150.266 768.266 147.734 769.828 146.172L780.172 135.828Z" fill="#FFC947"/>
<path d="M419.172 449.828C420.734 448.266 423.266 448.266 424.828 449.828L435.172 460.172C436.734 461.734 436.734 464.266 435.172 465.828L424.828 476.172C423.266 477.734 420.734 477.734 419.172 476.172L408.828 465.828C407.266 464.266 407.266 461.734 408.828 460.172L419.172 449.828Z" fill="#FF9B00"/>
<path d="M52.1716 119.828C53.7337 118.266 56.2663 118.266 57.8284 119.828L68.1716 130.172C69.7337 131.734 69.7337 134.266 68.1716 135.828L57.8284 146.172C56.2663 147.734 53.7337 147.734 52.1716 146.172L41.8284 135.828C40.2663 134.266 40.2663 131.734 41.8284 130.172L52.1716 119.828Z" fill="#FFC947"/>
<defs>
<radialGradient id="paint0_radial_754_6391" cx="0" cy="0" r="1" gradientUnits="userSpaceOnUse" gradientTransform="translate(37.9771 76.5964) rotate(40.7947) scale(546.221 846.739)">
<stop offset="0.125" stop-color="#FF9B00"/>
<stop offset="1" stop-color="#ED1C24"/>
</radialGradient>
<radialGradient id="paint1_radial_754_6391" cx="0" cy="0" r="1" gradientUnits="userSpaceOnUse" gradientTransform="translate(997.084 33.6873) rotate(100.795) scale(546.221 846.739)">
<stop offset="0.125" stop-color="#FF9B00"/>
<stop offset="1" stop-color="#ED1C24"/>
</radialGradient>
<radialGradient id="paint2_radial_754_6391" cx="0" cy="0" r="1" gradientUnits="userSpaceOnUse" gradientTransform="translate(516.555 20.8299) rotate(70.4936) scale(547.23 859.502)">
<stop offset="0.125" stop-color="#FFE600"/>
<stop offset="1" stop-color="#FF9702"/>
</radialGradient>
</defs>
</svg>
