<svg width="52" height="52" viewBox="0 0 52 52" fill="none" xmlns="http://www.w3.org/2000/svg">
<path d="M20.3431 5.65686C23.4673 2.53266 28.5327 2.53266 31.6569 5.65685L46.3431 20.3431C49.4673 23.4673 49.4673 28.5327 46.3431 31.6569L31.6569 46.3431C28.5327 49.4673 23.4673 49.4673 20.3431 46.3431L5.65686 31.6569C2.53266 28.5327 2.53266 23.4673 5.65685 20.3431L20.3431 5.65686Z" fill="url(#paint0_radial_1705_43)"/>
<g clip-path="url(#clip0_1705_43)">
<path fill-rule="evenodd" clip-rule="evenodd" d="M28.1351 19.56C28.3764 19.3187 28.6629 19.1273 28.9782 18.9967C29.2934 18.8661 29.6313 18.7989 29.9726 18.7989C30.3139 18.7989 30.6518 18.8661 30.9671 18.9967C31.2823 19.1273 31.5688 19.3187 31.8101 19.56C32.0514 19.8013 32.2428 20.0878 32.3734 20.4031C32.504 20.7183 32.5712 21.0563 32.5712 21.3975C32.5712 21.7388 32.504 22.0767 32.3734 22.392C32.2428 22.7072 32.0514 22.9937 31.8101 23.235L30.9976 24.045C30.8269 24.2219 30.7325 24.4588 30.7348 24.7046C30.737 24.9504 30.8357 25.1855 31.0096 25.3592C31.1835 25.5329 31.4187 25.6314 31.6645 25.6335C31.9103 25.6355 32.1471 25.5409 32.3239 25.37L33.1351 24.56C33.9407 23.7146 34.3839 22.5876 34.3698 21.4198C34.3557 20.2521 33.8856 19.1361 33.0598 18.3103C32.234 17.4845 31.118 17.0144 29.9503 17.0003C28.7825 16.9863 27.6556 17.4294 26.8101 18.235L23.4964 21.545C22.6576 22.3838 22.1864 23.5213 22.1864 24.7075C22.1864 25.8937 22.6576 27.0313 23.4964 27.87C23.6731 28.0409 23.9099 28.1355 24.1557 28.1335C24.4015 28.1314 24.6367 28.0329 24.8106 27.8592C24.9845 27.6855 25.0832 27.4504 25.0854 27.2046C25.0877 26.9588 24.9933 26.7219 24.8226 26.545C24.5812 26.3038 24.3896 26.0173 24.259 25.702C24.1283 25.3868 24.061 25.0488 24.061 24.7075C24.061 24.3662 24.1283 24.0283 24.259 23.713C24.3896 23.3977 24.5812 23.1112 24.8226 22.87L28.1364 19.56H28.1351ZM27.9476 23.4175C27.7702 23.2472 27.5331 23.1534 27.2872 23.1563C27.0414 23.1593 26.8065 23.2586 26.6332 23.4331C26.4599 23.6075 26.3621 23.843 26.3608 24.0889C26.3596 24.3347 26.4549 24.5713 26.6264 24.7475C27.6464 25.76 27.6489 27.41 26.6314 28.425L23.3139 31.7338C23.0722 31.9751 22.7854 32.1664 22.4698 32.2969C22.1543 32.4273 21.8161 32.4944 21.4746 32.4941C21.1331 32.4939 20.795 32.4264 20.4796 32.2955C20.1642 32.1646 19.8777 31.9729 19.6364 31.7313C19.149 31.2433 18.8755 30.5817 18.876 29.892C18.8764 29.2023 19.1509 28.5411 19.6389 28.0538L20.4476 27.245C20.6132 27.0673 20.7034 26.8322 20.6991 26.5894C20.6948 26.3465 20.5964 26.1147 20.4246 25.943C20.2529 25.7712 20.0211 25.6728 19.7783 25.6685C19.5354 25.6643 19.3003 25.7544 19.1226 25.92L18.3126 26.7288C17.4729 27.5675 17.0007 28.7055 17 29.8924C16.9993 31.0792 17.4701 32.2178 18.3089 33.0575C19.1476 33.8972 20.2856 34.3694 21.4725 34.3701C22.6593 34.3708 23.7979 33.9 24.6376 33.0613L27.9551 29.7525C28.3718 29.3367 28.7022 28.8426 28.9274 28.2988C29.1525 27.7549 29.268 27.1718 29.2672 26.5832C29.2664 25.9945 29.1493 25.4118 28.9226 24.8686C28.696 24.3253 28.3642 23.8322 27.9464 23.4175H27.9476Z" fill="white"/>
</g>
<defs>
<radialGradient id="paint0_radial_1705_43" cx="0" cy="0" r="1" gradientUnits="userSpaceOnUse" gradientTransform="translate(16.5455 -6.96429) rotate(59.1918) scale(77.3011 169.686)">
<stop offset="0.125" stop-color="#FF9B00"/>
<stop offset="1" stop-color="#ED1C24"/>
</radialGradient>
<clipPath id="clip0_1705_43">
<rect width="18" height="18" fill="white" transform="translate(17 17)"/>
</clipPath>
</defs>
</svg>
