<svg width="179" height="43" viewBox="0 0 179 43" fill="none" xmlns="http://www.w3.org/2000/svg">
<path d="M0 0.600586H29.4304V15.3158C29.4304 23.4386 22.838 30.031 14.7152 30.031C6.59241 30.031 0 23.4386 0 15.3158V0.600586Z" fill="#ED1C24"/>
<path d="M8.8291 0.600586H20.6013V15.3158C20.6013 18.5649 17.9643 21.2019 14.7152 21.2019C11.4661 21.2019 8.8291 18.5649 8.8291 15.3158V0.600586Z" fill="#D11C24"/>
<path d="M14.7152 21.2019C17.966 21.2019 20.6013 18.5666 20.6013 15.3158C20.6013 12.065 17.966 9.42969 14.7152 9.42969C11.4644 9.42969 8.8291 12.065 8.8291 15.3158C8.8291 18.5666 11.4644 21.2019 14.7152 21.2019Z" fill="#FF9B00"/>
<path d="M14.7152 42.9807C17.966 42.9807 20.6013 40.3454 20.6013 37.0946C20.6013 33.8438 17.966 31.2085 14.7152 31.2085C11.4644 31.2085 8.8291 33.8438 8.8291 37.0946C8.8291 40.3454 11.4644 42.9807 14.7152 42.9807Z" fill="#FF9B00"/>
<path d="M31.4302 0.87793H60.8606V15.5931C60.8606 23.7159 54.2682 30.3083 46.1454 30.3083C38.0226 30.3083 31.4302 23.7159 31.4302 15.5931V0.87793Z" fill="#0000FF"/>
<path d="M40.2593 0.600586H52.0314V15.3158C52.0314 18.5649 49.3945 21.2019 46.1454 21.2019C42.8962 21.2019 40.2593 18.5649 40.2593 15.3158V0.600586Z" fill="#0000D6"/>
<path d="M46.1454 21.2019C49.3962 21.2019 52.0314 18.5666 52.0314 15.3158C52.0314 12.065 49.3962 9.42969 46.1454 9.42969C42.8946 9.42969 40.2593 12.065 40.2593 15.3158C40.2593 18.5666 42.8946 21.2019 46.1454 21.2019Z" fill="#FFC700"/>
<path d="M46.1454 42.9807C49.3962 42.9807 52.0314 40.3454 52.0314 37.0946C52.0314 33.8438 49.3962 31.2085 46.1454 31.2085C42.8946 31.2085 40.2593 33.8438 40.2593 37.0946C40.2593 40.3454 42.8946 42.9807 46.1454 42.9807Z" fill="#FFC700"/>
<path d="M68.8608 30.0637V7.17713H74.1495V15.1256C75.201 13.641 77.0876 12.6204 79.4691 12.6204C83.3969 12.6204 86.0258 15.3421 86.0258 19.9812V30.0637H80.7681V20.6926C80.7681 18.3421 79.4691 17.0431 77.4588 17.0431C75.4485 17.0431 74.1495 18.3421 74.1495 20.6926V30.0637H68.8608ZM88.6493 21.4039C88.6493 15.9606 92.0205 12.5586 96.2576 12.5586C98.8246 12.5586 100.649 13.7338 101.577 15.2493V12.806H106.866V30.0637H101.577V27.6204C100.618 29.1359 98.7937 30.3111 96.2266 30.3111C92.0205 30.3111 88.6493 26.8472 88.6493 21.4039ZM101.577 21.4349C101.577 18.6823 99.8143 17.1668 97.804 17.1668C95.8246 17.1668 94.0308 18.6514 94.0308 21.4039C94.0308 24.1565 95.8246 25.7029 97.804 25.7029C99.8143 25.7029 101.577 24.1874 101.577 21.4349ZM113.321 11.0122C111.434 11.0122 110.166 9.74414 110.166 8.16682C110.166 6.55857 111.434 5.29053 113.321 5.29053C115.176 5.29053 116.445 6.55857 116.445 8.16682C116.445 9.74414 115.176 11.0122 113.321 11.0122ZM110.692 12.806H115.981V32.2905C115.981 36.7751 113.475 38.2905 109.888 38.2905H107.816V33.806H109.084C110.259 33.806 110.692 33.373 110.692 32.3524V12.806ZM118.731 21.4039C118.731 15.9606 122.103 12.5586 126.34 12.5586C128.907 12.5586 130.731 13.7338 131.659 15.2493V12.806H136.948V30.0637H131.659V27.6204C130.701 29.1359 128.876 30.3111 126.309 30.3111C122.103 30.3111 118.731 26.8472 118.731 21.4039ZM131.659 21.4349C131.659 18.6823 129.896 17.1668 127.886 17.1668C125.907 17.1668 124.113 18.6514 124.113 21.4039C124.113 24.1565 125.907 25.7029 127.886 25.7029C129.896 25.7029 131.659 24.1874 131.659 21.4349ZM146.063 22.0534V30.0637H140.774V12.806H146.063V15.6823C147.269 13.8575 149.156 12.6204 151.475 12.6204V18.2184H150.021C147.516 18.2184 146.063 19.0843 146.063 22.0534ZM160.557 30.0637V12.806H165.846V30.0637H160.557ZM163.217 11.0122C161.33 11.0122 160.062 9.74414 160.062 8.16682C160.062 6.55857 161.33 5.29053 163.217 5.29053C165.073 5.29053 166.341 6.55857 166.341 8.16682C166.341 9.74414 165.073 11.0122 163.217 11.0122ZM170.204 30.0637V17.1977H168.287V12.806H170.204V12.3111C170.204 7.79568 172.988 5.56888 178.245 5.84723V10.3318C176.204 10.2081 175.493 10.8266 175.493 12.6514V12.806H178.338V17.1977H175.493V30.0637H170.204Z" fill="white"/>
</svg>
