<svg width="119" height="114" viewBox="0 0 119 114" fill="none" xmlns="http://www.w3.org/2000/svg">
<g filter="url(#filter0_d_1676_214)">
<ellipse cx="59.295" cy="57" rx="54.295" ry="52" fill="#FF9B00"/>
</g>
<path d="M82.3327 29.3333H35.666C33.0139 29.3333 30.4703 30.3868 28.5949 32.2622C26.7196 34.1375 25.666 36.6811 25.666 39.3333V72.6666C25.666 75.3187 26.7196 77.8623 28.5949 79.7377C30.4703 81.613 33.0139 82.6666 35.666 82.6666H82.3327C84.9848 82.6666 87.5284 81.613 89.4038 79.7377C91.2791 77.8623 92.3327 75.3187 92.3327 72.6666V39.3333C92.3327 36.6811 91.2791 34.1375 89.4038 32.2622C87.5284 30.3868 84.9848 29.3333 82.3327 29.3333ZM80.0993 35.9999L58.9993 51.8333L37.8993 35.9999H80.0993ZM82.3327 75.9999H35.666C34.782 75.9999 33.9341 75.6487 33.309 75.0236C32.6839 74.3985 32.3327 73.5506 32.3327 72.6666V40.1666L56.9993 58.6666C57.5763 59.0993 58.2781 59.3333 58.9993 59.3333C59.7206 59.3333 60.4224 59.0993 60.9993 58.6666L85.666 40.1666V72.6666C85.666 73.5506 85.3148 74.3985 84.6897 75.0236C84.0646 75.6487 83.2167 75.9999 82.3327 75.9999Z" fill="#FFC947"/>
<defs>
<filter id="filter0_d_1676_214" x="0" y="0" width="118.59" height="114" filterUnits="userSpaceOnUse" color-interpolation-filters="sRGB">
<feFlood flood-opacity="0" result="BackgroundImageFix"/>
<feColorMatrix in="SourceAlpha" type="matrix" values="0 0 0 0 0 0 0 0 0 0 0 0 0 0 0 0 0 0 127 0" result="hardAlpha"/>
<feOffset/>
<feGaussianBlur stdDeviation="2.5"/>
<feComposite in2="hardAlpha" operator="out"/>
<feColorMatrix type="matrix" values="0 0 0 0 1 0 0 0 0 1 0 0 0 0 1 0 0 0 1 0"/>
<feBlend mode="normal" in2="BackgroundImageFix" result="effect1_dropShadow_1676_214"/>
<feBlend mode="normal" in="SourceGraphic" in2="effect1_dropShadow_1676_214" result="shape"/>
</filter>
</defs>
</svg>
