<svg width="119" height="114" viewBox="0 0 119 114" fill="none" xmlns="http://www.w3.org/2000/svg">
<g filter="url(#filter0_d_1674_52)">
<ellipse cx="59.2941" cy="57" rx="54.2941" ry="52" fill="#FF9B00"/>
</g>
<path d="M80.7147 36.2254C84.083 43.4622 83.316 51.9998 79.6142 58.9365C76.4793 64.5726 71.9771 69.3416 68.1419 74.5775C66.4744 76.912 64.8069 79.4132 63.573 82.1145C63.1394 83.015 62.8393 83.9487 62.5058 84.8825C62.1723 85.8163 61.8721 86.7501 61.572 87.6839C61.2718 88.551 60.905 89.5848 59.8045 89.5848C58.5038 89.5848 58.137 88.1175 57.8702 87.117C57.0698 84.6824 56.2694 82.348 55.0355 80.1135C53.6348 77.4789 51.8672 75.0444 50.0664 72.6766L80.7147 36.2254ZM50.1997 44.296L39.1944 57.3691C41.2287 61.6712 44.2635 65.3396 47.1649 69.0081C47.8653 69.8418 48.5656 70.7089 49.2326 71.6094L63.1394 55.1346L63.006 55.168C58.137 56.8355 52.7343 54.3676 50.8 49.5652C50.5332 48.9983 50.3331 48.3313 50.1997 47.6643C50.0163 46.5602 50.0163 45.4334 50.1997 44.3293V44.296ZM41.7289 31.6231L41.6956 31.6565C36.2929 38.4931 35.3591 47.9978 38.5941 56.0351L51.9006 40.2273L51.7338 40.0606L41.7289 31.6231ZM67.2081 24.0861L56.4695 36.7923L56.6029 36.759C61.0717 35.2249 66.0742 37.1592 68.342 41.2278C68.8422 42.1616 69.2424 43.1621 69.3758 44.1626C69.5759 45.4299 69.6426 46.3303 69.4092 47.5643V47.5976L80.0811 34.9247C77.2914 29.8535 72.7146 26.0019 67.2414 24.1194L67.2081 24.0861ZM52.7677 39.1935L65.8074 23.6859L65.674 23.6525C63.7397 23.1523 61.7721 22.8855 59.8045 22.8855C53.2346 22.8855 47.0315 25.7202 42.6294 30.5893L42.5627 30.6226L52.7677 39.1935Z" fill="#FFC947"/>
<defs>
<filter id="filter0_d_1674_52" x="0" y="0" width="118.588" height="114" filterUnits="userSpaceOnUse" color-interpolation-filters="sRGB">
<feFlood flood-opacity="0" result="BackgroundImageFix"/>
<feColorMatrix in="SourceAlpha" type="matrix" values="0 0 0 0 0 0 0 0 0 0 0 0 0 0 0 0 0 0 127 0" result="hardAlpha"/>
<feOffset/>
<feGaussianBlur stdDeviation="2.5"/>
<feComposite in2="hardAlpha" operator="out"/>
<feColorMatrix type="matrix" values="0 0 0 0 1 0 0 0 0 1 0 0 0 0 1 0 0 0 1 0"/>
<feBlend mode="normal" in2="BackgroundImageFix" result="effect1_dropShadow_1674_52"/>
<feBlend mode="normal" in="SourceGraphic" in2="effect1_dropShadow_1674_52" result="shape"/>
</filter>
</defs>
</svg>
