<svg width="24" height="24" viewBox="0 0 24 24" fill="none" xmlns="http://www.w3.org/2000/svg">
<circle cx="12" cy="12" r="11" stroke="#ED1C24" stroke-width="2"/>
<path d="M12.9636 6.85714C12.9636 6.38304 12.5736 6 12.0909 6C11.6082 6 11.2182 6.38304 11.2182 6.85714V13.7143C11.2182 14.1884 11.6082 14.5714 12.0909 14.5714C12.5736 14.5714 12.9636 14.1884 12.9636 13.7143V6.85714ZM12.0909 18C12.3802 18 12.6577 17.8871 12.8623 17.6862C13.0669 17.4853 13.1818 17.2127 13.1818 16.9286C13.1818 16.6444 13.0669 16.3719 12.8623 16.171C12.6577 15.97 12.3802 15.8571 12.0909 15.8571C11.8016 15.8571 11.5241 15.97 11.3195 16.171C11.1149 16.3719 11 16.6444 11 16.9286C11 17.2127 11.1149 17.4853 11.3195 17.6862C11.5241 17.8871 11.8016 18 12.0909 18Z" fill="#ED1C24"/>
</svg>
