<svg width="255" height="202" viewBox="0 0 255 202" fill="none" xmlns="http://www.w3.org/2000/svg">
<path d="M238.875 0.749971V43.25H214.5C195.333 43.25 185.75 52.8333 185.75 72V92H196.375C213.042 92 226.792 97 237.625 107C248.875 117 254.5 129.708 254.5 145.125C254.5 161.792 248.875 175.333 237.625 185.75C226.792 196.167 213.042 201.375 196.375 201.375C179.292 201.375 165.333 196.167 154.5 185.75C143.667 174.917 138.25 160.542 138.25 142.625V70.75C138.25 24.0833 161.583 0.749971 208.25 0.749971H238.875ZM101.375 0.749971V43.25H77C57.8333 43.25 48.25 52.8333 48.25 72V92H58.875C75.5417 92 89.2917 97 100.125 107C111.375 117 117 129.708 117 145.125C117 161.792 111.375 175.333 100.125 185.75C89.2917 196.167 75.5417 201.375 58.875 201.375C41.7917 201.375 27.8333 196.167 17 185.75C6.16667 174.917 0.750001 160.542 0.750001 142.625V70.75C0.750001 24.0833 24.0833 0.749971 70.75 0.749971H101.375Z" fill="#51535E"/>
</svg>
