<svg width="24" height="24" viewBox="0 0 24 24" fill="none" xmlns="http://www.w3.org/2000/svg">
<g clip-path="url(#clip0_879_1928)">
<path d="M3.75 1.84615V22.1538H14.25V1.84615H3.75ZM2.875 0H15.125C15.3571 0 15.5796 0.0972524 15.7437 0.270363C15.9078 0.443473 16 0.678262 16 0.923077V23.0769C16 23.3217 15.9078 23.5565 15.7437 23.7296C15.5796 23.9027 15.3571 24 15.125 24H2.875C2.64294 24 2.42038 23.9027 2.25628 23.7296C2.09219 23.5565 2 23.3217 2 23.0769V0.923077C2 0.678262 2.09219 0.443473 2.25628 0.270363C2.42038 0.0972524 2.64294 0 2.875 0Z" fill="#060919"/>
<path d="M5.57143 6H13V7.8H5.57143V6ZM5.57143 11.4H13V13.2H5.57143V11.4ZM5.57143 16.8H13V18.6H5.57143V16.8ZM16.7143 13.2H20.4286V15H16.7143V13.2ZM16.7143 16.8H20.4286V18.6H16.7143V16.8ZM0 22.2H26V24H0V22.2Z" fill="#060919"/>
<path d="M16.8 8.88889V22.1111H22.2V8.88889H16.8ZM15.9 7H23.1C23.3387 7 23.5676 7.0995 23.7364 7.27662C23.9052 7.45374 24 7.69396 24 7.94444V23.0556C24 23.306 23.9052 23.5463 23.7364 23.7234C23.5676 23.9005 23.3387 24 23.1 24H15.9C15.6613 24 15.4324 23.9005 15.2636 23.7234C15.0948 23.5463 15 23.306 15 23.0556V7.94444C15 7.69396 15.0948 7.45374 15.2636 7.27662C15.4324 7.0995 15.6613 7 15.9 7Z" fill="#060919"/>
</g>
<defs>
<clipPath id="clip0_879_1928">
<rect width="24" height="24" fill="white"/>
</clipPath>
</defs>
</svg>
