<svg width="522" height="633" viewBox="0 0 522 633" fill="none" xmlns="http://www.w3.org/2000/svg">
<rect width="418.696" height="239.255" rx="16" transform="matrix(-0.0274587 0.999623 -0.999606 -0.0280699 250.354 165.078)" fill="#FBDD00"/>
<path d="M95.1716 604.828C96.7337 603.266 99.2663 603.266 100.828 604.828L111.172 615.172C112.734 616.734 112.734 619.266 111.172 620.828L100.828 631.172C99.2663 632.734 96.7337 632.734 95.1716 631.172L84.8284 620.828C83.2663 619.266 83.2663 616.734 84.8284 615.172L95.1716 604.828Z" fill="#FF9B00"/>
<path d="M25.1716 106.828C26.7337 105.266 29.2663 105.266 30.8284 106.828L41.1716 117.172C42.7337 118.734 42.7337 121.266 41.1716 122.828L30.8284 133.172C29.2663 134.734 26.7337 134.734 25.1716 133.172L14.8284 122.828C13.2663 121.266 13.2663 118.734 14.8284 117.172L25.1716 106.828Z" fill="#0000FF"/>
<path d="M25.1716 284.828C26.7337 283.266 29.2663 283.266 30.8284 284.828L41.1716 295.172C42.7337 296.734 42.7337 299.266 41.1716 300.828L30.8284 311.172C29.2663 312.734 26.7337 312.734 25.1716 311.172L14.8284 300.828C13.2663 299.266 13.2663 296.734 14.8284 295.172L25.1716 284.828Z" fill="#FFC947"/>
<path d="M351.172 45.8284C352.734 44.2663 355.266 44.2663 356.828 45.8284L367.172 56.1716C368.734 57.7337 368.734 60.2663 367.172 61.8284L356.828 72.1716C355.266 73.7337 352.734 73.7337 351.172 72.1716L340.828 61.8284C339.266 60.2663 339.266 57.7337 340.828 56.1716L351.172 45.8284Z" fill="#ED1C24"/>
</svg>
