<svg width="52" height="53" viewBox="0 0 52 53" fill="none" xmlns="http://www.w3.org/2000/svg">
<path d="M20.3431 6.25769C23.4673 3.13349 28.5327 3.13349 31.6569 6.25768L46.3431 20.944C49.4673 24.0682 49.4673 29.1335 46.3431 32.2577L31.6569 46.944C28.5327 50.0682 23.4673 50.0682 20.3431 46.944L5.65686 32.2577C2.53266 29.1335 2.53266 24.0682 5.65685 20.944L20.3431 6.25769Z" fill="#ED1C24"/>
<path fill-rule="evenodd" clip-rule="evenodd" d="M17 25.5214C19.0707 25.947 21.734 26.7707 23.75 28.0658C26.1178 24.9353 30.371 22.0068 35 19.6008C30.6042 23.8748 26.9668 28.7245 24.5 33.6008C22.5118 30.8137 20.3398 28.2197 17 25.5214Z" fill="white"/>
</svg>
