<svg width="25" height="25" viewBox="0 0 25 25" fill="none" xmlns="http://www.w3.org/2000/svg">
<path d="M21.1475 12.5639L14.3975 19.3139C14.2909 19.4132 14.1498 19.4673 14.0041 19.4648C13.8584 19.4622 13.7193 19.4032 13.6163 19.3001C13.5132 19.197 13.4542 19.058 13.4516 18.9123C13.449 18.7666 13.5031 18.6255 13.6025 18.5189L19.3916 12.7289H4.25C4.10082 12.7289 3.95774 12.6696 3.85225 12.5641C3.74676 12.4586 3.6875 12.3156 3.6875 12.1664C3.6875 12.0172 3.74676 11.8741 3.85225 11.7686C3.95774 11.6632 4.10082 11.6039 4.25 11.6039H19.3916L13.6025 5.81389C13.5031 5.70726 13.449 5.56622 13.4516 5.4205C13.4542 5.27477 13.5132 5.13573 13.6163 5.03267C13.7193 4.92961 13.8584 4.87058 14.0041 4.86801C14.1498 4.86544 14.2909 4.91953 14.3975 5.01889L21.1475 11.7689C21.2528 11.8744 21.312 12.0173 21.312 12.1664C21.312 12.3155 21.2528 12.4584 21.1475 12.5639Z" fill="black"/>
</svg>
