<svg width="32" height="33" viewBox="0 0 32 33" fill="none" xmlns="http://www.w3.org/2000/svg">
<path d="M20.5208 19.2674H19.5004L19.1388 18.9074C20.4483 17.3395 21.1681 15.3377 21.1667 13.2674C21.1667 11.5533 20.6743 9.87772 19.7517 8.4525C18.8292 7.02727 17.5179 5.91644 15.9838 5.26048C14.4496 4.60452 12.7615 4.4329 11.1329 4.7673C9.50426 5.10171 8.00826 5.92713 6.83409 7.13918C5.65991 8.35124 4.86028 9.89549 4.53633 11.5767C4.21237 13.2578 4.37864 15.0004 5.0141 16.584C5.64956 18.1677 6.72567 19.5212 8.10636 20.4735C9.48705 21.4258 11.1103 21.9341 12.7708 21.9341C14.8504 21.9341 16.7621 21.1474 18.2346 19.8408L18.5833 20.2141V21.2674L25.0417 27.9208L26.9663 25.9341L20.5208 19.2674ZM12.7708 19.2674C9.55459 19.2674 6.95834 16.5874 6.95834 13.2674C6.95834 9.94744 9.55459 7.26744 12.7708 7.26744C15.9871 7.26744 18.5833 9.94744 18.5833 13.2674C18.5833 16.5874 15.9871 19.2674 12.7708 19.2674Z" fill="#B4B6BA"/>
</svg>
