<svg width="52" height="52" viewBox="0 0 52 52" fill="none" xmlns="http://www.w3.org/2000/svg">
<path d="M20.3431 5.65686C23.4673 2.53266 28.5327 2.53266 31.6569 5.65685L46.3431 20.3431C49.4673 23.4673 49.4673 28.5327 46.3431 31.6569L31.6569 46.3431C28.5327 49.4673 23.4673 49.4673 20.3431 46.3431L5.65686 31.6569C2.53266 28.5327 2.53266 23.4673 5.65685 20.3431L20.3431 5.65686Z" fill="url(#paint0_radial_991_348)"/>
<path d="M20.0625 17C20.8084 17 21.5238 17.2963 22.0512 17.8238C22.5787 18.3512 22.875 19.0666 22.875 19.8125C22.875 20.5584 22.5787 21.2738 22.0512 21.8012C21.5238 22.3287 20.8084 22.625 20.0625 22.625C19.3166 22.625 18.6012 22.3287 18.0738 21.8012C17.5463 21.2738 17.25 20.5584 17.25 19.8125C17.25 19.0666 17.5463 18.3512 18.0738 17.8238C18.6012 17.2963 19.3166 17 20.0625 17ZM33 17C33.7459 17 34.4613 17.2963 34.9887 17.8238C35.5162 18.3512 35.8125 19.0666 35.8125 19.8125C35.8125 20.5584 35.5162 21.2738 34.9887 21.8012C34.4613 22.3287 33.7459 22.625 33 22.625C32.2541 22.625 31.5387 22.3287 31.0113 21.8012C30.4838 21.2738 30.1875 20.5584 30.1875 19.8125C30.1875 19.0666 30.4838 18.3512 31.0113 17.8238C31.5387 17.2963 32.2541 17 33 17ZM15 27.5012C15 25.4305 16.6805 23.75 18.7512 23.75H20.2523C20.8113 23.75 21.3422 23.873 21.8203 24.091C21.7746 24.3441 21.7535 24.6078 21.7535 24.875C21.7535 26.218 22.3441 27.4238 23.2758 28.25C23.2688 28.25 23.2617 28.25 23.2512 28.25H15.7488C15.3375 28.25 15 27.9125 15 27.5012ZM29.2488 28.25C29.2418 28.25 29.2348 28.25 29.2242 28.25C30.1594 27.4238 30.7465 26.218 30.7465 24.875C30.7465 24.6078 30.7219 24.3477 30.6797 24.091C31.1578 23.8695 31.6887 23.75 32.2477 23.75H33.7488C35.8195 23.75 37.5 25.4305 37.5 27.5012C37.5 27.916 37.1625 28.25 36.7512 28.25H29.2488ZM22.875 24.875C22.875 23.9799 23.2306 23.1214 23.8635 22.4885C24.4965 21.8556 25.3549 21.5 26.25 21.5C27.1451 21.5 28.0036 21.8556 28.6365 22.4885C29.2694 23.1214 29.625 23.9799 29.625 24.875C29.625 25.7701 29.2694 26.6286 28.6365 27.2615C28.0036 27.8944 27.1451 28.25 26.25 28.25C25.3549 28.25 24.4965 27.8944 23.8635 27.2615C23.2306 26.6286 22.875 25.7701 22.875 24.875ZM19.5 34.0613C19.5 31.4738 21.5988 29.375 24.1863 29.375H28.3137C30.9012 29.375 33 31.4738 33 34.0613C33 34.5781 32.5816 35 32.0613 35H20.4387C19.9219 35 19.5 34.5816 19.5 34.0613Z" fill="white"/>
<defs>
<radialGradient id="paint0_radial_991_348" cx="0" cy="0" r="1" gradientUnits="userSpaceOnUse" gradientTransform="translate(16.5455 -6.96429) rotate(59.1918) scale(77.3011 169.686)">
<stop offset="0.125" stop-color="#FF9B00"/>
<stop offset="1" stop-color="#ED1C24"/>
</radialGradient>
</defs>
</svg>
