<svg width="52" height="52" viewBox="0 0 52 52" fill="none" xmlns="http://www.w3.org/2000/svg">
<path d="M20.3431 5.65686C23.4673 2.53266 28.5327 2.53266 31.6569 5.65685L46.3431 20.3431C49.4673 23.4673 49.4673 28.5327 46.3431 31.6569L31.6569 46.3431C28.5327 49.4673 23.4673 49.4673 20.3431 46.3431L5.65686 31.6569C2.53266 28.5327 2.53266 23.4673 5.65685 20.3431L20.3431 5.65686Z" fill="url(#paint0_radial_1000_1614)"/>
<g clip-path="url(#clip0_1000_1614)">
<path d="M27.4374 18.9031L26.6077 17.2228C26.4706 16.931 26.0418 16.9205 25.8906 17.2228L25.061 18.9031L23.2224 19.1668C22.8955 19.216 22.7549 19.6203 22.9975 19.8628L24.3333 21.1635L24.0169 22.995C23.9677 23.322 24.3052 23.5751 24.6075 23.4239L26.2562 22.5521L27.8944 23.4098C28.1967 23.561 28.5377 23.3079 28.4849 22.981L28.1686 21.1495L29.5044 19.8628C29.7434 19.6238 29.6063 19.2195 29.2794 19.1668L27.4409 18.9031H27.4374ZM23.9993 26.0007C23.3771 26.0007 22.8744 26.5034 22.8744 27.1256V33.8751C22.8744 34.4973 23.3771 35 23.9993 35H28.499C29.1212 35 29.6239 34.4973 29.6239 33.8751V27.1256C29.6239 26.5034 29.1212 26.0007 28.499 26.0007H23.9993ZM16.1249 28.2505C15.5027 28.2505 15 28.7532 15 29.3754V33.8751C15 34.4973 15.5027 35 16.1249 35H20.6246C21.2468 35 21.7495 34.4973 21.7495 33.8751V29.3754C21.7495 28.7532 21.2468 28.2505 20.6246 28.2505H16.1249ZM30.7488 31.6252V33.8751C30.7488 34.4973 31.2515 35 31.8737 35H36.3734C36.9956 35 37.4983 34.4973 37.4983 33.8751V31.6252C37.4983 31.003 36.9956 30.5003 36.3734 30.5003H31.8737C31.2515 30.5003 30.7488 31.003 30.7488 31.6252Z" fill="white"/>
</g>
<defs>
<radialGradient id="paint0_radial_1000_1614" cx="0" cy="0" r="1" gradientUnits="userSpaceOnUse" gradientTransform="translate(16.5455 -6.96429) rotate(59.1918) scale(77.3011 169.686)">
<stop offset="0.125" stop-color="#FF9B00"/>
<stop offset="1" stop-color="#ED1C24"/>
</radialGradient>
<clipPath id="clip0_1000_1614">
<rect width="18" height="18" fill="white" transform="translate(17 17)"/>
</clipPath>
</defs>
</svg>
