<svg xmlns="http://www.w3.org/2000/svg" width="20" height="20" viewBox="0 0 28 28" fill="none">
        <g clip-path="url(#clip0_1809_559)">
            <path d="M14 28C6.23438 28 0 21.679 0 14C0 6.23438 6.23438 0 14 0C21.7656 0 28 6.23438 28 14C28 21.679 21.7656 28 14 28ZM14 2.352C7.588 2.352 2.34675 7.588 2.34675 14.0009C2.34675 20.4137 7.588 25.6541 14 25.6541C20.412 25.6541 25.6533 20.4129 25.6533 14.0009C25.6533 7.58887 20.412 2.352 14 2.352ZM20.8679 15.3536H10.7502C10.5359 15.3548 10.3298 15.2711 10.1769 15.1207C10.0241 14.9703 9.93706 14.7656 9.93475 14.5512V13.3709C9.93475 12.915 10.2944 12.5554 10.7502 12.5554H20.9536C21.4051 12.5554 21.7648 12.9202 21.7648 13.3709V14.5425C21.6781 14.994 21.3132 15.3536 20.867 15.3536H20.8679ZM18.2472 10.8369H8.03863C7.82411 10.8385 7.61773 10.7549 7.46482 10.6045C7.3119 10.454 7.22497 10.249 7.22312 10.0345V8.85413C7.22312 8.48925 7.588 8.12963 8.03863 8.12963H18.242C18.6069 8.12963 18.9665 8.4945 18.9665 8.85413V10.0258C18.9665 10.4773 18.6077 10.8369 18.2472 10.8369ZM8.0395 17.1631H18.2481C18.6996 17.1631 19.0592 17.5227 19.0592 17.9743V19.1459C19.0602 19.3609 18.9758 19.5676 18.8245 19.7205C18.6733 19.8733 18.4676 19.96 18.2525 19.9614H8.0395C7.588 19.8704 7.22837 19.5099 7.22837 19.0592V17.8832C7.224 17.5236 7.588 17.1631 8.0395 17.1631Z" fill="black" />
        </g>
        <defs>
            <clipPath id="clip0_1809_559">
                <rect width="28" height="28" fill="white" />
            </clipPath>
        </defs>
    </svg>